<?xml version="1.0" encoding="UTF-8" standalone="no"?>
<svg
   xmlns:dc="http://purl.org/dc/elements/1.1/"
   xmlns:cc="http://creativecommons.org/ns#"
   xmlns:rdf="http://www.w3.org/1999/02/22-rdf-syntax-ns#"
   xmlns:svg="http://www.w3.org/2000/svg"
   xmlns="http://www.w3.org/2000/svg"
   xmlns:sodipodi="http://sodipodi.sourceforge.net/DTD/sodipodi-0.dtd"
   xmlns:inkscape="http://www.inkscape.org/namespaces/inkscape"
   id="Camada_1"
   data-name="Camada 1"
   viewBox="0 0 202.00001 202.23399"
   version="1.1"
   sodipodi:docname="logo.svg"
   width="202"
   height="202.23399"
   inkscape:version="0.92.3 (3ce5693, 2018-03-11)">
  <metadata
     id="metadata4266">
    <rdf:RDF>
      <cc:Work
         rdf:about="">
        <dc:format>image/svg+xml</dc:format>
        <dc:type
           rdf:resource="http://purl.org/dc/dcmitype/StillImage" />
        <dc:title>Marca</dc:title>
      </cc:Work>
    </rdf:RDF>
  </metadata>
  <sodipodi:namedview
     pagecolor="#ffffff"
     bordercolor="#666666"
     borderopacity="1"
     objecttolerance="10"
     gridtolerance="10"
     guidetolerance="10"
     inkscape:pageopacity="0"
     inkscape:pageshadow="2"
     inkscape:window-width="1877"
     inkscape:window-height="1056"
     id="namedview4264"
     showgrid="false"
     showguides="false"
     inkscape:zoom="3.134058"
     inkscape:cx="137.84"
     inkscape:cy="138"
     inkscape:window-x="43"
     inkscape:window-y="24"
     inkscape:window-maximized="1"
     inkscape:current-layer="Camada_1" />
  <defs
     id="defs4189">
    <style
       id="style4187">.cls-1{fill:#2192d0;}.cls-2{fill:#2193d1;}.cls-3{fill:#a0b940;}.cls-4{fill:#278fcd;}.cls-5{opacity:0.44;}.cls-6{fill:#7cb342;}.cls-7{fill:#c0ca33;}.cls-8{fill:#fbc02d;}.cls-9{fill:#ffa000;}.cls-10{fill:#51a888;}.cls-11{fill:#fff;}.cls-12{fill:#38929a;}.cls-13{fill:#733999;}.cls-14{fill:#cd541f;}</style>
  </defs>
  <title
     id="title4191">Marca</title>
  <path
     class="cls-1"
     d="m 67.19167,112.8114 a 15.021039,15.021004 0 0 0 8.147998,1.79519 3.0848084,3.0848013 0 0 0 2.88697,-1.80984 3.3192832,3.3192755 0 0 0 -0.54955,-3.38523 7.1807892,7.1807725 0 0 0 -3.224028,-2.3081 18.252394,18.252351 0 0 1 -4.770096,-2.7624 c -2.930934,-2.46931 -3.824869,-5.642036 -3.048171,-9.305696 a 9.1078785,9.1078574 0 0 1 6.264872,-7.15879 c 3.846851,-1.296936 7.642411,-0.864624 11.342716,0.68144 a 0.73273359,0.73273189 0 0 1 0.527568,1.025825 c -0.344385,1.641319 -0.622824,3.289966 -0.871953,4.94594 -0.0806,0.534894 -0.197838,0.498258 -0.600842,0.271111 a 10.434126,10.434102 0 0 0 -6.345473,-1.362881 3.8468513,3.8468424 0 0 0 -1.729251,0.644804 2.7770603,2.7770539 0 0 0 -0.732733,3.920115 7.4445733,7.444556 0 0 0 2.850333,2.249492 c 1.414176,0.73273 2.930935,1.27495 4.315801,2.10294 2.271474,1.3702 3.978743,3.17272 4.447693,5.86185 0.937899,5.38558 -1.399521,11.25476 -8.587638,12.41248 a 17.395095,17.395055 0 0 1 -10.624637,-1.50943 c -0.637478,-0.30775 -0.930571,-0.61549 -0.732733,-1.40684 0.41033,-1.60469 0.666787,-3.25333 1.033154,-4.90198 z"
     id="path4193"
     inkscape:connector-curvature="0"
     style="fill:#2192d0;stroke-width:0.73273271" />
  <path
     class="cls-2"
     d="m 114.81203,103.59363 c 0,-5.180412 0,-10.353499 0,-15.526586 0,-0.608168 0.17585,-0.732732 0.73273,-0.732732 2.46931,0 4.9313,0 7.40061,0 0.52757,0 0.6961,0.131892 0.6961,0.681441 q 0,15.599857 0,31.192397 c 0,0.54955 -0.16121,0.68877 -0.6961,0.68144 -2.46199,0 -4.9313,0 -7.40061,0 -0.58619,0 -0.73273,-0.14655 -0.73273,-0.73273 0.0147,-5.21705 0,-10.39014 0,-15.56323 z"
     id="path4195"
     inkscape:connector-curvature="0"
     style="fill:#2193d1;stroke-width:0.73273271" />
  <path
     class="cls-3"
     d="m 125.44399,91.151845 c 0,-5.173087 0,-10.353501 0,-15.526589 0,-0.608167 0.1612,-0.732732 0.73273,-0.732732 2.46932,0 4.9313,0 7.40061,0 0.49826,0 0.64481,0.117238 0.64481,0.63015 q 0,15.629171 0,31.265666 c 0,0.51292 -0.14655,0.63748 -0.64481,0.63015 -2.46198,0 -4.93129,0 -7.40061,0 -0.59351,0 -0.73273,-0.13189 -0.73273,-0.73273 0,-5.18774 0,-10.360828 0,-15.533915 z"
     id="path4197"
     inkscape:connector-curvature="0"
     style="fill:#a0b940;stroke-width:0.73273271" />
  <path
     class="cls-3"
     d="m 119.20843,83.692634 a 4.3964015,4.3963913 0 1 1 4.44036,-4.3451 4.3964015,4.3963913 0 0 1 -4.44036,4.3451 z"
     id="path4199"
     inkscape:connector-curvature="0"
     style="fill:#a0b940;stroke-width:0.73273271" />
  <path
     class="cls-4"
     d="m 134.23679,115.42725 a 4.3964015,4.3963913 0 1 1 -4.3964,-4.39639 4.3964015,4.3963913 0 0 1 4.3964,4.39639 z"
     id="path4201"
     inkscape:connector-curvature="0"
     style="fill:#278fcd;stroke-width:0.73273271" />
  <path
     class="cls-1"
     d="m 111.63929,94.287938 c -1.29694,-3.194711 -3.34127,-5.715309 -6.69719,-6.873026 a 12.712928,12.712898 0 0 0 -15.387401,5.759273 c -3.128772,5.429543 -3.561085,11.240105 -1.934417,17.204545 a 12.793528,12.793499 0 0 0 8.008779,9.04924 19.117019,19.116975 0 0 0 8.990639,0.84997 20.135519,20.135472 0 0 0 6.08169,-1.61201 c 0.27111,-0.11724 0.50559,-0.19784 0.46895,-0.59352 -0.15387,-1.6633 -0.27844,-3.33393 -0.41033,-4.99723 a 1.2749564,1.2749535 0 0 0 -0.73273,0.1612 22.172518,22.172467 0 0 1 -7.60578,1.27496 c -4.601566,-0.0806 -7.576464,-2.86498 -7.774302,-7.32732 0,-0.63748 0.161201,-0.73273 0.732733,-0.73273 5.634719,0 11.262119,0 16.896839,0 0.52024,0 0.73273,-0.12457 0.73273,-0.63015 a 24.612521,24.612464 0 0 0 -1.37021,-11.533202 z m -6.49935,5.979092 H 94.932964 c -0.271112,0 -0.622824,0.0879 -0.549551,-0.403003 0.344385,-2.198195 0.967209,-4.257172 2.623187,-5.861855 a 4.689495,4.6894841 0 0 1 7.11484,0.622822 9.7673387,9.7673161 0 0 1 1.59003,5.217051 c 0.0293,0.468945 -0.27843,0.424985 -0.57153,0.424985 z"
     id="path4203"
     inkscape:connector-curvature="0"
     style="fill:#2192d0;stroke-width:0.73273271" />
  <g
     class="cls-5"
     id="g4213"
     style="opacity:0.43999999"
     transform="matrix(0.73273359,0,0,0.73273189,0,-1.9073487e-6)">
    <path
       class="cls-6"
       d="M 400.38,406.5 382,411.43 A 115.47,115.47 0 0 0 297.8,295.69 L 269,310.78 A 115.61,115.61 0 0 1 377,411.12 L 359.48,403 c 7.39,10.08 13.84,25.89 17.34,38.48 5.56,-11.79 14.57,-26.28 23.56,-34.98 z"
       transform="translate(-159.8,-282.94)"
       id="path4205"
       inkscape:connector-curvature="0"
       style="fill:#7cb342" />
    <path
       class="cls-7"
       d="m 364.87,493.06 a 115.13,115.13 0 0 0 57.79,-71.82 L 407.41,392.12 A 115.59,115.59 0 0 1 307,501.17 l 8.08,-17.55 C 305,491 289.23,497.46 276.63,501 c 11.83,5.56 26.33,14.58 35,23.56 l -4.94,-18.36 a 114.88,114.88 0 0 0 58.18,-13.14 z"
       transform="translate(-159.8,-282.94)"
       id="path4207"
       inkscape:connector-curvature="0"
       style="fill:#c0ca33" />
    <path
       class="cls-8"
       d="M 328.53,531.68 A 115.54,115.54 0 0 1 217,431.21 l 17.54,8.08 C 227.15,429.21 220.7,413.4 217.2,400.8 c -5.56,11.83 -14.57,26.33 -23.55,35 L 212,430.89 a 115.47,115.47 0 0 0 86.71,116.42 z"
       transform="translate(-159.8,-282.94)"
       id="path4209"
       inkscape:connector-curvature="0"
       style="fill:#fbc02d" />
    <path
       class="cls-9"
       d="M 229.11,349.23 A 115.15,115.15 0 0 0 171,422.09 l 15.48,29.54 A 115.53,115.53 0 0 1 286.94,341.12 l -8.08,17.55 c 10.09,-7.4 25.9,-13.85 38.49,-17.35 -11.83,-5.56 -26.33,-14.57 -35,-23.55 l 4.94,18.35 a 114.89,114.89 0 0 0 -58.18,13.11 z"
       transform="translate(-159.8,-282.94)"
       id="path4211"
       inkscape:connector-curvature="0"
       style="fill:#ffa000" />
  </g>
  <g
     class="cls-5"
     id="g4223"
     style="opacity:0.43999999"
     transform="matrix(0.73273359,0,0,0.73273189,0,-1.9073487e-6)">
    <circle
       class="cls-10"
       cx="74.190002"
       cy="27.08"
       r="27.08"
       id="circle4215"
       style="fill:#51a888" />
    <rect
       class="cls-11"
       x="69.519997"
       y="34.990002"
       width="9.3199997"
       height="5.0900002"
       rx="1.65"
       ry="1.65"
       id="rect4217"
       style="fill:#ffffff" />
    <rect
       class="cls-11"
       x="59.790001"
       y="38.599998"
       width="28.780001"
       height="2.3399999"
       rx="0.75999999"
       ry="0.75999999"
       id="rect4219"
       style="fill:#ffffff" />
    <path
       class="cls-11"
       d="m 250.3,298.54 a 1.92,1.92 0 0 0 -1.92,-1.92 H 219.7 a 1.92,1.92 0 0 0 -1.92,1.92 v 17.73 a 1.92,1.92 0 0 0 1.92,1.92 h 28.68 a 1.92,1.92 0 0 0 1.92,-1.92 z m -1.53,16.31 a 1.92,1.92 0 0 1 -1.92,1.92 h -25.29 a 1.92,1.92 0 0 1 -1.92,-1.92 v -14.66 a 1.92,1.92 0 0 1 1.92,-1.93 h 25.29 a 1.92,1.92 0 0 1 1.92,1.93 z"
       transform="translate(-159.8,-282.94)"
       id="path4221"
       inkscape:connector-curvature="0"
       style="fill:#ffffff" />
  </g>
  <g
     class="cls-5"
     id="g4235"
     style="opacity:0.43999999"
     transform="matrix(0.73273359,0,0,0.73273189,0,-1.9073487e-6)">
    <circle
       class="cls-12"
       cx="248.60001"
       cy="73.43"
       r="27.08"
       id="circle4225"
       style="fill:#38929a" />
    <path
       class="cls-11"
       d="m 407.64,350.21 v -10.06 h 11.59 v 30 H 397.58 V 350.2 Z m -11.58,-0.52 v 21.94 h 24.68 v -33 h -13.51 z"
       transform="translate(-159.8,-282.94)"
       id="path4227"
       inkscape:connector-curvature="0"
       style="fill:#ffffff" />
    <rect
       class="cls-11"
       x="399.76001"
       y="354.69"
       width="16.719999"
       height="1.33"
       transform="rotate(180,328.225,213.885)"
       id="rect4229"
       style="fill:#ffffff" />
    <rect
       class="cls-11"
       x="399.76001"
       y="359.32001"
       width="16.719999"
       height="1.33"
       transform="rotate(180,328.225,218.52)"
       id="rect4231"
       style="fill:#ffffff" />
    <rect
       class="cls-11"
       x="399.76001"
       y="363.95001"
       width="16.719999"
       height="1.33"
       transform="rotate(180,328.225,223.15)"
       id="rect4233"
       style="fill:#ffffff" />
  </g>
  <g
     class="cls-5"
     id="g4247"
     style="opacity:0.43999999"
     transform="matrix(0.73273359,0,0,0.73273189,0,-1.9073487e-6)">
    <circle
       class="cls-13"
       cx="27.08"
       cy="202.28999"
       r="27.08"
       id="circle4237"
       style="fill:#733999" />
    <path
       class="cls-11"
       d="m 180.91,480.85 4.82,8.35 a 1.22,1.22 0 0 0 2.3,0 l 4.82,-8.35 c 0.63,-1.1 0.12,-2 -1.15,-2 h -1.48 v -8.77 a 3.34,3.34 0 1 0 -6.68,0 v 8.77 h -1.48 c -1.27,0 -1.79,0.9 -1.15,2 z"
       transform="translate(-159.8,-282.94)"
       id="path4239"
       inkscape:connector-curvature="0"
       style="fill:#ffffff" />
    <rect
       class="cls-11"
       x="14.14"
       y="211.7"
       width="25.879999"
       height="5.5999999"
       rx="1.71"
       ry="1.71"
       id="rect4241"
       style="fill:#ffffff" />
    <rect
       class="cls-11"
       x="170.07001"
       y="490.29001"
       width="13.33"
       height="5.5999999"
       rx="1.8099999"
       ry="1.8099999"
       transform="rotate(90,238.31,271.72)"
       id="rect4243"
       style="fill:#ffffff" />
    <rect
       class="cls-11"
       x="190.35001"
       y="490.29001"
       width="13.33"
       height="5.5999999"
       rx="1.8099999"
       ry="1.8099999"
       transform="rotate(90,258.595,271.715)"
       id="rect4245"
       style="fill:#ffffff" />
  </g>
  <g
     class="cls-5"
     id="g4261"
     style="opacity:0.43999999"
     transform="matrix(0.73273359,0,0,0.73273189,0,-1.9073487e-6)">
    <circle
       class="cls-14"
       cx="204.25"
       cy="248.92"
       r="27.08"
       id="circle4249"
       style="fill:#cd541f" />
    <circle
       class="cls-11"
       cx="202"
       cy="237.14"
       r="6.3000002"
       id="circle4251"
       style="fill:#ffffff" />
    <path
       class="cls-11"
       d="m 361.63,541.26 h 8.92 a 2.45,2.45 0 0 0 1.77,-0.73 1.57,1.57 0 0 0 0.48,-1.28 v -9.7 c 0,0 -1.11,-2.73 -3.13,0 l -0.11,0.12 c 0,0 0.4,-1.69 -0.31,-2.19 0,0 -1.4,-1.76 -2.88,0.55 0,0 0.36,-2.46 -1,-2.7 0,0 -1.33,-0.64 -2.22,1.19 0,0 0.13,-4.29 0,-4.67 0,0 0.39,-3.08 -1.44,-3 0,0 -2.33,-0.42 -1.63,4.41 v 7.46 c 0,0 0.05,1.48 -1,0.71 l -1.5,-2.65 c 0,0 -1.2,-0.63 -1.93,-0.12 -0.73,0.51 -0.29,1.51 -0.17,1.82 0,0 3.24,7.25 4.6,9.88 a 1.71,1.71 0 0 0 1.55,0.9 z"
       transform="translate(-159.8,-282.94)"
       id="path4253"
       inkscape:connector-curvature="0"
       style="fill:#ffffff" />
    <path
       class="cls-14"
       d="m 361.6,518.81 h 0.17 c 1.79,0 1.41,3 1.41,3 0.14,0.38 0,4.67 0,4.67 0.52,-1.08 1.2,-1.3 1.67,-1.3 a 1.33,1.33 0 0 1 0.55,0.11 c 1.36,0.24 1,2.7 1,2.7 0.58,-0.92 1.16,-1.19 1.64,-1.19 a 1.78,1.78 0 0 1 1.24,0.64 c 0.71,0.5 0.31,2.19 0.31,2.19 l 0.11,-0.12 c 0.67,-0.9 1.24,-1.2 1.7,-1.2 0.93,0 1.43,1.22 1.43,1.22 v 9.7 c 0.15,1.38 -1.6,2 -1.6,2 h -10.54 v 0 c -0.44,0 -5.15,-10.81 -5.15,-10.81 -0.12,-0.31 -0.57,-1.31 0.17,-1.82 a 1.2,1.2 0 0 1 0.71,-0.2 3,3 0 0 1 1.22,0.32 l 1.5,2.65 a 0.86,0.86 0 0 0 0.5,0.22 c 0.49,0 0.46,-0.93 0.46,-0.93 v -7.46 c -0.6,-4.11 1,-4.42 1.49,-4.42 m 0,-0.91 v 0 a 2.24,2.24 0 0 0 -1.7,0.8 c -0.78,0.9 -1,2.4 -0.7,4.59 v 6.36 l -0.76,-1.35 -0.13,-0.24 -0.24,-0.12 a 3.93,3.93 0 0 0 -1.64,-0.42 2.12,2.12 0 0 0 -1.23,0.36 1.87,1.87 0 0 0 -0.8,1.73 3.6,3.6 0 0 0 0.28,1.11 v 0.06 0 c 0,0 1.19,2.74 2.41,5.41 0.72,1.58 1.31,2.84 1.76,3.74 0.83,1.67 1.12,2.2 1.81,2.2 v 0 l 10.49,0.05 h 0.17 l 0.15,-0.06 a 3,3 0 0 0 2.2,-2.9 v -9.65 -0.18 l -0.06,-0.17 c -0.08,-0.18 -0.78,-1.79 -2.28,-1.79 a 2.08,2.08 0 0 0 -0.93,0.22 1.92,1.92 0 0 0 -0.56,-0.85 2.65,2.65 0 0 0 -1.87,-0.88 1.64,1.64 0 0 1 -2.38,-1.48 2.37,2.37 0 0 0 -0.81,-0.14 2.24,2.24 0 0 0 -0.71,0.11 22.7,22.7 0 0 0 0,-2.59 4.56,4.56 0 0 0 -0.74,-3.23 2.05,2.05 0 0 0 -1.57,-0.71 z"
       transform="translate(-159.8,-282.94)"
       id="path4255"
       inkscape:connector-curvature="0"
       style="fill:#cd541f" />
    <rect
       class="cls-11"
       x="201.38"
       y="257.78"
       width="10.14"
       height="2.98"
       rx="0.87"
       ry="0.87"
       id="rect4257"
       style="fill:#ffffff" />
    <rect
       class="cls-11"
       x="200.46001"
       y="260.60999"
       width="11.97"
       height="5.6900001"
       rx="1.33"
       ry="1.33"
       id="rect4259"
       style="fill:#ffffff" />
  </g>
</svg>
